<svg id="Layer_1" data-name="Layer 1" xmlns="http://www.w3.org/2000/svg" viewBox="0 0 612 517.87"><defs><style>.cls-1{fill:#1a1d20;}.cls-2{fill:#42a3db;}.cls-3{fill:#d5ddef;}</style></defs><rect class="cls-1" width="612" height="517.87"/><rect class="cls-2" x="161.67" y="66.37" width="236.54" height="35.01" rx="17.51"/><rect class="cls-3" x="266.12" y="136.39" width="91.2" height="35.01" rx="17.51"/><rect class="cls-3" x="345.32" y="206.42" width="170.54" height="35.01" rx="17.51"/><rect class="cls-2" x="432.08" y="66.37" width="62.4" height="35.01" rx="17.51"/><rect class="cls-2" x="285.32" y="346.46" width="191.06" height="35.01" rx="17.51"/><rect class="cls-2" x="420.18" y="276.44" width="133.41" height="35.01" rx="17.51"/><rect class="cls-3" x="229.94" y="414.23" width="170.54" height="35.01" rx="17.51"/><rect class="cls-3" x="133.68" y="414.23" width="59.51" height="35.01" rx="17.51"/><rect class="cls-3" x="58.41" y="136.39" width="170.54" height="35.01" rx="17.51"/><rect class="cls-2" x="175.71" y="206.42" width="133.41" height="35.01" rx="17.51"/><rect class="cls-2" x="65.4" y="67.5" width="62.4" height="35.01" rx="17.51"/><rect class="cls-2" x="434.66" y="416.49" width="62.4" height="35.01" rx="17.51"/><rect class="cls-3" x="228.95" y="276.44" width="158.13" height="35.01" rx="17.51"/></svg>