<?xml version="1.0" standalone="no"?>
<!DOCTYPE svg PUBLIC "-//W3C//DTD SVG 20010904//EN"
 "http://www.w3.org/TR/2001/REC-SVG-20010904/DTD/svg10.dtd">
<svg version="1.0" xmlns="http://www.w3.org/2000/svg"
 width="1924.000000pt" height="1924.000000pt" viewBox="0 0 1924.000000 1924.000000"
 preserveAspectRatio="xMidYMid meet">
<metadata>
Created by potrace 1.14, written by Peter Selinger 2001-2017
</metadata>
<g transform="translate(0.000000,1924.000000) scale(0.100000,-0.100000)"
fill="#000000" stroke="none">
<path d="M9358 19236 c-1 -2 -56 -7 -121 -10 -65 -4 -126 -9 -135 -11 -9 -1
-51 -6 -92 -10 -89 -8 -112 -11 -165 -20 -22 -3 -65 -10 -95 -15 -242 -39
-483 -95 -695 -160 -71 -22 -138 -42 -147 -44 -28 -7 -217 -76 -318 -116 -408
-162 -818 -388 -1175 -649 -107 -78 -104 -76 -303 -236 -22 -18 -35 -29 -137
-120 -126 -112 -4485 -4471 -4580 -4580 -39 -44 -78 -89 -88 -100 -38 -41
-205 -253 -268 -340 -257 -353 -476 -748 -634 -1140 -48 -119 -88 -223 -91
-235 0 -3 -3 -12 -7 -20 -19 -46 -112 -351 -121 -395 -2 -11 -16 -65 -30 -120
-13 -55 -27 -111 -30 -125 -29 -143 -38 -190 -42 -219 -3 -18 -8 -43 -10 -55
-12 -62 -32 -205 -40 -291 -2 -33 -7 -71 -9 -85 -25 -142 -26 -881 -1 -1038 3
-15 7 -58 11 -95 3 -37 8 -76 9 -85 3 -15 7 -44 22 -152 55 -392 208 -919 384
-1325 53 -121 169 -358 217 -444 24 -43 130 -223 156 -266 102 -167 347 -505
442 -611 6 -6 35 -40 65 -75 30 -35 86 -98 125 -139 129 -139 4429 -4435 4515
-4511 90 -79 98 -86 200 -171 178 -149 488 -364 705 -490 240 -139 514 -271
755 -362 69 -27 134 -52 145 -57 59 -25 409 -131 477 -144 11 -2 28 -7 38 -10
10 -3 27 -8 37 -10 10 -2 70 -16 133 -30 63 -15 129 -28 145 -31 17 -2 41 -6
55 -9 21 -4 119 -20 255 -40 17 -2 57 -7 90 -10 33 -3 74 -7 90 -10 203 -26
893 -27 1046 0 13 2 51 7 84 9 76 7 118 13 235 31 89 14 108 17 170 30 14 2
40 7 59 10 19 3 37 7 40 9 3 2 24 7 46 10 56 9 303 71 405 103 116 35 261 82
285 93 11 4 65 25 120 46 55 20 123 48 152 61 28 12 54 23 57 23 24 0 376 177
561 283 76 43 82 46 260 162 160 104 500 358 555 415 3 3 48 43 100 90 118
106 4455 4442 4566 4565 123 137 143 161 240 285 235 301 420 591 582 915 52
104 132 274 132 281 0 2 9 23 20 47 22 47 110 274 115 297 2 8 15 47 29 85 23
64 95 299 100 328 1 7 5 21 9 32 3 11 8 31 11 45 3 14 14 61 25 105 10 44 22
94 25 110 2 17 7 40 10 51 2 12 7 37 10 55 8 46 15 84 26 144 5 28 12 74 15
104 4 30 8 62 10 72 2 10 7 49 10 86 4 37 9 82 11 98 25 190 25 833 0 1030 -2
17 -7 61 -11 98 -3 37 -8 76 -9 85 -3 17 -13 87 -22 152 -3 19 -7 46 -10 60
-8 42 -11 61 -28 155 -38 200 -168 675 -215 780 -5 11 -30 76 -57 145 -53 141
-174 411 -216 483 -15 26 -28 52 -28 56 0 4 -25 53 -56 107 -222 392 -447 706
-733 1024 -108 121 -4446 4458 -4561 4560 -52 47 -97 87 -100 90 -4 5 -40 34
-152 125 -182 148 -494 359 -704 475 -32 18 -75 42 -94 53 -116 66 -570 277
-596 277 -3 0 -20 6 -37 14 -60 27 -344 123 -462 156 -91 25 -145 40 -167 44
-12 2 -59 13 -103 24 -44 12 -120 28 -170 37 -103 20 -121 23 -155 30 -14 2
-45 7 -70 10 -25 3 -56 8 -70 10 -14 3 -45 7 -70 10 -25 3 -60 7 -78 9 -18 3
-67 8 -110 11 -42 4 -90 9 -107 11 -35 5 -661 14 -667 10z"/>
</g>
</svg>
